<svg id="Layer_1" data-name="Layer 1" xmlns="http://www.w3.org/2000/svg" viewBox="0 0 223.77 107.83"><defs><style>.cls-1{fill:#4bb8a7;}</style></defs><path class="cls-1" d="M208.56,107.83c-3.18-4.59-6.36-9.19-9.7-14-14.89,6.83-29.77,7.72-44.47.84A46.86,46.86,0,0,1,131,70.54c-10.09-22.84-1.84-50.16,18.7-62.75,19.63-12,47-7.92,61.61,8.35C227.39,34,229.66,66.8,207.65,87.62l14.89,20.21ZM212.06,50a105.72,105.72,0,0,0-1.61-10.7c-6.61-26-38.41-36.23-58.61-18.79-8.46,7.31-12.22,17.1-12.62,28.08-.59,16.62,8.54,31.76,24.07,37.37C187.46,94.73,211.66,76.64,212.06,50Z"/><path class="cls-1" d="M45.38,0c2.13,4.55,4.06,8.14,5.45,11.92.45,1.25-.23,3.12-.84,4.51-6.31,14.42-12.72,28.81-19.31,43.7H73.25L90.44,97.34c-.47.31-.58.46-.7.46-12.49.88-12.48.88-17.51-10.58-1.92-4.36-4.07-8.64-5.76-13.09-1-2.63-2.5-3.27-5.17-3.24-10.64.15-21.29.17-31.93,0-2.78,0-4.1.83-5.14,3.35-2.69,6.52-5.93,12.83-8.47,19.4C14.4,97.16,12.52,98.47,8.81,98,6.2,97.66,3.5,97.93,0,97.93Z"/><path class="cls-1" d="M113.31,98.87H101.89V4.43h11.42Z"/><path class="cls-1" d="M54.61,45.72c13.7-.5,11.34-2.31,15.71,9.51C61,58.49,58.67,57.12,54.61,45.72Z"/><path class="cls-1" d="M188,48.35H162.57V40.67H188Z"/><path class="cls-1" d="M188.26,53.85V61H162.5V53.85Z"/></svg>